<?xml version="1.0" encoding="UTF-8"?>
<svg width="500px" height="500px" version="1.0" viewBox="0 0 5e3 5e3" xmlns="http://www.w3.org/2000/svg">
 <path d="m0 2500v-2500h5e3v5e3h-5e3z"/>
 <g fill="#fff">
  <path d="m1 4643c1-233 4-334 10-288 19 175 129 363 275 473 124 93 249 147 374 162 40 4-72 8-297 9l-363 1z"/>
  <path d="m4360 4989c294-31 563-269 625-554 12-54 13-31 14 253l1 312-357-1c-239-1-333-4-283-10z"/>
  <path d="m636 4764c-139-34-289-148-353-270-45-84-63-162-63-271v-93h4570v93c0 172-48 295-155 402-33 33-87 75-121 92-127 67 9 63-1999 62-1534-1-1829-3-1879-15z"/>
  <path d="m220 3885v-25h4570v50h-4570z"/>
  <path d="m0 2688v-953l440 6v442c0 492 0 485 70 555 78 79 147 92 493 92h247v810h-1250z"/>
  <path d="m1470 3125v-514l-396-3c-378-3-396-4-410-22-12-16-14-92-14-433v-413h170v760h700l19-39c28-53 101-124 158-153l48-23 925-6v-539h110v324c0 187-4 336-10 350l-10 26h-325c-359 0-381 3-409 59-26 50-21 88 18 127 30 30 40 34 85 34h51v220h-54c-63 0-99 23-116 74-15 46 7 98 52 126 32 20 46 20 808 17l775-2 3-297 2-298h110v333c0 251-3 337-12 350-12 15-80 17-838 19-781 3-827 4-854 21-40 27-60 80-46 123 17 51 53 74 116 74h54v220h-710z"/>
  <path d="m2400 3530v-110h1375l51-24c58-27 106-80 131-145 14-39 17-97 21-398l4-353h429c394 0 430-1 436-17 4-9 2-61-4-115-15-131-57-223-145-315-167-174-397-266-698-280s-582 75-766 241c-128 115-184 237-184 397v89h380v380h-1030v-220h193c181 0 195-2 243-24 27-13 66-42 87-66 68-79 70-94 75-482l4-348h1678v-105c0-174-38-314-124-459-138-231-406-439-736-569-532-211-1171-245-1755-92-184 48-259 76-430 161-170 84-296 170-403 275l-73 73-47-12c-215-54-463-37-672 45-233 92-409 283-430 466-4 34-8-295-9-730l-1-793h5e3v3640h-2600z"/>
  <path d="m1030 2010v-270h1420v318l-372 4c-351 4-377 5-438 26-86 28-168 86-205 144l-30 47h-187l-188 1z"/>
  <path d="m3320 2269c0-19 133-145 180-170 74-39 150-68 235-91 115-32 355-32 470 0 194 52 321 126 393 226l33 46h-655c-472 0-656-3-656-11z"/>
  <path d="m240 1514c0-19 48-80 98-124 64-57 205-131 297-156 33-9 116-18 185-21 193-8 327 23 478 112 59 34 142 118 142 143 0 6 5 12 10 12 6 0 10 9 10 20 0 20-7 20-610 20-335 0-610-3-610-6z"/>
  <path d="m1686 1482c-16-103-121-241-243-320l-62-40 53-50c147-139 422-272 716-347 185-47 334-66 555-72 291-8 507 15 750 78 508 131 876 411 969 737l15 52h-897c-493 0-892-4-885-8 6-4 14-19 18-34 8-32 36-44 66-28 18 10 25 8 48-14 22-22 24-29 13-46-20-32-14-49 22-71 32-19 34-22 25-52-5-17-9-33-9-34 0-2-8-3-19-3-29 0-44-25-37-63 5-27 2-38-18-56s-28-21-44-12c-36 19-59 13-71-19-6-18-17-30-28-30-34 0-63 12-63 26 0 8-9 23-20 34-19 19-22 19-50 5s-29-14-51 16c-18 26-20 34-10 56 15 33 7 57-24 71-34 15-33 82 1 82 8 0 23 9 34 20 17 17 18 24 8 45-10 23-8 29 15 52 25 25 27 26 51 10 14-10 32-17 41-17 14 0 35 36 35 61 0 5-177 9-449 9h-448zm1420-43c16-32 16-32 94-14 16 3 33-1 48-12 19-15 21-23 13-49-12-41 1-60 44-68 19-4 35-13 35-20 0-8 3-26 6-42 5-25 2-30-25-41-25-9-31-17-31-42 0-16 5-33 10-36 16-10 12-34-10-65-19-26-23-27-55-18-40 13-65-1-65-37 0-41-84-49-102-10-15 32-43 40-74 21-22-15-27-15-55-1-26 14-29 20-24 45 9 39-8 67-45 75-19 4-30 13-30 23 0 9-3 27-6 40-5 18-1 24 24 33 39 13 48 46 23 80-19 26-19 27 0 58 21 34 27 36 63 19 22-9 29-8 46 7 11 10 20 31 20 46 0 25 4 28 38 32 20 2 38 4 39 5s10-12 19-29zm-366-374c16-20 39-19 61 1 16 14 23 15 49 4 16-7 27-17 24-22s-3-20 0-34c5-20 13-24 41-24 29 0 36-4 41-25 4-17 1-32-10-44-20-22-20-40 1-63 23-26 4-65-34-70-23-2-29-9-33-37-6-44-48-60-76-30-22 24-36 24-58 0-15-16-23-18-47-9-20 7-29 17-29 31 0 36-15 50-43 43-22-5-27-1-36 26-9 25-8 35 4 48 19 21 19 39-1 61-14 16-15 23-4 48 9 23 19 31 43 33 26 2 33 8 35 28 6 43 48 64 72 35z"/>
  <path d="m3028 1304c-36-19-48-43-48-93 0-115 165-150 214-46 21 43 20 63-4 103-31 51-104 68-162 36z"/>
  <path d="m2709 951c-36-36-37-70-3-110 21-25 33-31 65-31 83 0 118 83 60 141-40 39-82 39-122 0z"/>
  <path d="m2573 1376c-33-15-63-60-63-96 0-52 49-100 101-100 37 0 80 31 95 67 37 86-47 167-133 129z"/>
  <g fill="#000" stroke-width="10px" aria-label="BonSAI">
   <path d="m1587.4 4331.1q0 38.4-21.333 65.706-21.333 26.453-59.733 41.813 98.986 32.426 98.986 122.03 0 84.48-63.146 125.44-62.293 40.106-180.05 40.106-14.507 0-34.133-0.8533-19.627-0.8534-40.96-3.4134-20.48-2.5599-40.96-6.8266-20.48-3.4133-37.546-10.24-46.933-17.92-46.933-62.293v-398.51q0-17.92 9.3867-27.306 10.24-10.24 27.306-16.213 29.013-10.24 72.533-14.507 43.52-5.12 89.6-5.12 109.23 0 168.11 36.693 58.88 36.693 58.88 113.49zm-134.83 222.72q0-52.053-69.973-52.053h-75.946v104.11q11.947 3.4133 30.72 5.1199 18.773 0.8534 35.84 0.8534 34.133 0 56.32-13.653 23.04-14.507 23.04-44.373zm-145.92-156.16h62.293q36.693 0 52.906-13.653 17.067-13.653 17.067-40.107 0-23.04-19.627-36.693-18.773-13.653-57.173-13.653-12.8 0-29.867 0.8533-16.213 0.8533-25.6 2.56z"/>
   <path d="m2105.3 4505.1q0 51.2-16.213 92.16-15.36 40.96-45.226 69.973-29.013 28.16-69.973 43.52-40.96 15.36-92.16 15.36t-92.16-14.507q-40.96-15.36-70.826-43.52-29.013-29.013-45.226-69.973-15.36-40.96-15.36-93.013 0-50.346 16.213-91.306t45.226-69.12q29.867-29.013 70.826-44.373 40.96-15.36 91.306-15.36t91.306 16.213q40.96 15.36 69.973 44.373 29.866 28.16 46.08 69.12 16.213 40.96 16.213 90.453zm-223.57-106.67q-35.84 0-55.466 28.16-19.627 27.306-19.627 78.506 0 53.76 19.627 81.066 19.626 26.453 55.466 26.453t55.466-27.307q19.626-27.306 19.626-80.213 0-51.2-19.626-78.506-19.627-28.16-55.466-28.16z"/>
   <path d="m2584 4711.7q-9.3866 2.56-27.307 5.12-17.067 2.56-37.546 2.56-42.666 0-61.44-13.653-18.773-14.507-18.773-54.613v-201.39q0-26.453-16.213-38.4-15.36-12.8-40.96-12.8-17.067 0-32.427 4.2666-14.507 4.2667-28.16 11.093v297.81q-9.3866 2.56-27.306 5.12-17.067 2.56-37.546 2.56-42.666 0-61.44-13.653-18.773-14.507-18.773-54.613v-256.85q0-23.04 9.3867-37.546 10.24-14.507 27.306-26.453 29.013-20.48 72.533-32.427 44.373-12.8 98.133-12.8 96.426 0 148.48 42.666 52.053 41.813 52.053 117.76z"/>
   <path d="m2839.2 4606.7q41.813 0 58.88-13.653t17.067-30.72-13.653-26.453q-13.653-10.24-38.4-18.773l-35.84-11.947q-37.546-12.8-68.266-25.6-30.72-13.653-52.906-32.426-22.187-18.773-34.986-44.373-11.947-26.453-11.947-64 0-72.533 55.466-116.05 56.32-43.52 157.01-43.52 36.693 0 68.266 5.1199 31.573 5.12 53.76 16.213 23.04 10.24 35.84 27.307 12.8 16.213 12.8 38.4t-10.24 38.4q-10.24 15.36-24.747 26.453-18.773-11.947-50.346-20.48-31.573-9.3867-69.12-9.3867-38.4 0-56.32 11.093-17.92 10.24-17.92 26.453 0 12.8 11.093 21.333 11.093 7.68 33.28 14.507l45.226 14.507q80.213 25.6 122.88 66.56 43.52 40.106 43.52 108.37 0 35.84-14.507 66.56-14.507 29.867-43.52 52.053-28.16 21.333-70.826 33.28-41.813 11.947-96.426 11.947-39.253 0-73.386-6.8267-33.28-5.9733-58.88-17.92-24.746-12.8-39.253-30.72-13.653-18.773-13.653-42.666 0-24.747 14.507-41.813 14.507-17.92 31.573-27.306 23.893 18.773 58.026 32.426 34.987 13.653 75.946 13.653z"/>
   <path d="m3442.5 4605h-154.45q-8.5333 30.72-15.36 57.173-5.9733 26.453-11.947 49.493-11.947 4.2666-25.6 6.8266-12.8 3.4133-31.573 3.4133-43.52 0-64.853-14.507-20.48-15.36-20.48-41.813 0-11.947 3.4133-23.893t7.68-28.16q5.9733-23.04 16.213-57.173 11.093-34.986 23.893-74.24 12.8-40.106 27.306-81.066 14.507-41.813 27.307-78.506 12.8-37.546 23.04-66.56 11.093-29.867 17.067-45.226 14.507-8.5333 43.52-16.213 29.867-7.68 59.733-7.68 42.666 0 75.093 12.8 33.28 11.947 42.666 39.253 15.36 43.52 33.28 102.4 17.92 58.88 35.84 122.03 17.92 62.293 34.987 123.73 17.067 60.586 29.866 107.52-10.24 11.947-30.72 18.773-20.48 7.68-48.64 7.68-41.813 0-58.026-13.653-16.213-13.653-23.893-43.52zm-75.946-284.16q-11.947 34.987-26.453 77.653t-28.16 91.306h105.81q-11.947-48.64-24.747-91.306-11.947-43.52-21.333-77.653z"/>
   <path d="m3769.3 4719.3q-45.226 0-63.146-15.36-17.067-15.36-17.067-55.466v-454.82q10.24-1.7067 29.867-4.2667 19.627-3.4133 39.253-3.4133 42.666 0 61.44 14.507t18.773 56.32v454.82q-9.3867 2.56-29.013 5.12-19.626 2.56-40.106 2.56z"/>
  </g>
 </g>
</svg>
