<!DOCTYPE svg PUBLIC "-//W3C//DTD SVG 20010904//EN" "http://www.w3.org/TR/2001/REC-SVG-20010904/DTD/svg10.dtd">
<svg version="1.0" xmlns="http://www.w3.org/2000/svg" width="500px" height="500px" viewBox="0 0 5000 5000" preserveAspectRatio="xMidYMid meet">
<g id="layer101" fill="#000000" stroke="none">
 <path d="M0 2500 l0 -2500 2500 0 2500 0 0 2500 0 2500 -2500 0 -2500 0 0 -2500z"/>
 </g>
<g id="layer102" fill="#ffffff" stroke="none">
 <path d="M1 4643 c1 -233 4 -334 10 -288 19 175 129 363 275 473 124 93 249 147 374 162 40 4 -72 8 -297 9 l-363 1 1 -357z"/>
 <path d="M4360 4989 c294 -31 563 -269 625 -554 12 -54 13 -31 14 253 l1 312 -357 -1 c-239 -1 -333 -4 -283 -10z"/>
 <path d="M636 4764 c-139 -34 -289 -148 -353 -270 -45 -84 -63 -162 -63 -271 l0 -93 2285 0 2285 0 0 93 c0 172 -48 295 -155 402 -33 33 -87 75 -121 92 -127 67 9 63 -1999 62 -1534 -1 -1829 -3 -1879 -15z m500 -65 c27 -13 59 -39 71 -58 44 -65 21 -174 -42 -203 l-25 -11 35 -33 c31 -28 35 -38 35 -79 0 -62 -24 -100 -80 -128 -39 -19 -61 -22 -165 -22 -90 0 -129 5 -157 17 l-38 17 0 235 c0 222 1 237 20 256 11 11 32 22 47 26 16 3 33 8 38 10 6 2 56 2 111 1 83 -3 110 -8 150 -28z m515 0 c102 -57 137 -194 79 -315 -72 -148 -327 -151 -410 -4 -21 37 -25 58 -25 120 1 115 43 179 144 217 54 20 159 11 212 -18z m323 25 c14 -5 16 -29 16 -164 0 -172 -1 -170 60 -170 54 0 60 18 60 166 0 122 2 136 21 155 16 16 30 19 72 17 l52 -3 3 -165 c3 -192 -5 -218 -79 -260 -37 -21 -57 -25 -129 -25 -73 0 -93 4 -141 28 -77 37 -81 51 -77 235 4 176 11 192 84 192 23 0 49 -3 58 -6z m673 -9 c34 -10 61 -27 82 -50 37 -42 45 -71 38 -131 -8 -75 -52 -111 -199 -165 -59 -21 -72 -41 -46 -67 16 -16 103 -15 150 2 33 12 39 11 53 -4 22 -25 19 -76 -7 -100 -31 -29 -60 -35 -158 -35 -110 0 -163 26 -198 97 -50 101 0 182 143 233 92 33 105 41 105 66 0 43 -104 53 -178 17 l-45 -21 -24 28 c-27 30 -25 65 5 98 38 43 185 60 279 32z m311 6 c7 -4 19 -30 26 -57 l12 -49 82 -3 81 -3 11 41 c15 54 42 80 84 80 46 0 86 -16 86 -35 0 -8 -29 -117 -65 -242 -71 -247 -81 -266 -150 -279 -50 -9 -123 4 -145 26 -10 10 -51 118 -91 239 -76 232 -80 263 -36 281 28 11 88 12 105 1z m607 -271 l0 -265 -28 -13 c-19 -9 -44 -12 -73 -7 l-44 6 0 259 c0 257 0 259 23 275 15 10 39 15 72 13 l50 -3 0 -265z m671 245 c13 -20 15 -33 8 -58 l-10 -32 -103 -5 -104 -5 76 -63 c93 -75 128 -126 135 -191 10 -103 -79 -181 -207 -181 -102 0 -161 35 -161 94 0 50 19 61 75 42 55 -19 76 -20 109 -4 63 28 39 78 -90 189 -102 87 -129 129 -118 177 15 60 21 62 205 62 l169 0 16 -25z"/>
 <path d="M920 4549 l0 -61 66 4 c72 4 86 15 82 63 -4 37 -36 55 -100 55 l-48 0 0 -61z"/>
 <path d="M920 4330 l0 -50 48 0 c78 0 117 44 74 83 -12 11 -36 17 -70 17 l-52 0 0 -50z"/>
 <path d="M1475 4585 c-21 -20 -25 -34 -25 -85 0 -51 4 -65 25 -85 13 -14 36 -25 50 -25 14 0 37 11 50 25 21 20 25 34 25 85 0 51 -4 65 -25 85 -13 14 -36 25 -50 25 -14 0 -37 -11 -50 -25z"/>
 <path d="M3030 4478 c0 -7 12 -49 27 -93 l27 -80 18 60 c10 33 21 75 24 93 l6 32 -51 0 c-34 0 -51 -4 -51 -12z"/>
 <path d="M220 3885 l0 -25 2285 0 2285 0 0 25 0 25 -2285 0 -2285 0 0 -25z"/>
 <path d="M0 2688 l0 -953 220 3 220 3 0 442 c0 492 0 485 70 555 78 79 147 92 493 92 l247 0 0 405 0 405 -625 0 -625 0 0 -952z"/>
 <path d="M1470 3125 l0 -514 -396 -3 c-378 -3 -396 -4 -410 -22 -12 -16 -14 -92 -14 -433 l0 -413 85 0 85 0 0 380 0 380 350 0 350 0 19 -39 c28 -53 101 -124 158 -153 l48 -23 463 -3 462 -3 0 -269 0 -270 55 0 55 0 0 324 c0 187 -4 336 -10 350 l-10 26 -325 0 c-359 0 -381 3 -409 59 -26 50 -21 88 18 127 30 30 40 34 85 34 l51 0 0 110 0 110 -54 0 c-63 0 -99 23 -116 74 -15 46 7 98 52 126 32 20 46 20 808 17 l775 -2 3 -297 2 -298 55 0 55 0 0 333 c0 251 -3 337 -12 350 -12 15 -80 17 -838 19 -781 3 -827 4 -854 21 -40 27 -60 80 -46 123 17 51 53 74 116 74 l54 0 0 110 0 110 -355 0 -355 0 0 -515z"/>
 <path d="M2400 3530 l0 -110 688 0 687 0 51 -24 c58 -27 106 -80 131 -145 14 -39 17 -97 21 -398 l4 -353 429 0 c394 0 430 -1 436 -17 4 -9 2 -61 -4 -115 -15 -131 -57 -223 -145 -315 -167 -174 -397 -266 -698 -280 -301 -14 -582 75 -766 241 -128 115 -184 237 -184 397 l0 89 190 0 190 0 0 190 0 190 -515 0 -515 0 0 -110 0 -110 193 0 c181 0 195 -2 243 -24 27 -13 66 -42 87 -66 68 -79 70 -94 75 -482 l4 -348 839 0 839 0 0 -105 c0 -174 -38 -314 -124 -459 -138 -231 -406 -439 -736 -569 -532 -211 -1171 -245 -1755 -92 -184 48 -259 76 -430 161 -170 84 -296 170 -403 275 l-73 73 -47 -12 c-215 -54 -463 -37 -672 45 -233 92 -409 283 -430 466 -4 34 -8 -295 -9 -730 l-1 -793 2500 0 2500 0 0 1820 0 1820 -1300 0 -1300 0 0 -110z"/>
 <path d="M1030 2010 l0 -270 710 0 710 0 0 159 0 159 -372 4 c-351 4 -377 5 -438 26 -86 28 -168 86 -205 144 l-30 47 -187 0 -188 1 0 -270z"/>
 <path d="M3320 2269 c0 -19 133 -145 180 -170 74 -39 150 -68 235 -91 115 -32 355 -32 470 0 194 52 321 126 393 226 l33 46 -655 0 c-472 0 -656 -3 -656 -11z"/>
 <path d="M240 1514 c0 -19 48 -80 98 -124 64 -57 205 -131 297 -156 33 -9 116 -18 185 -21 193 -8 327 23 478 112 59 34 142 118 142 143 0 6 5 12 10 12 6 0 10 9 10 20 0 20 -7 20 -610 20 -335 0 -610 -3 -610 -6z"/>
 <path d="M1686 1482 c-16 -103 -121 -241 -243 -320 l-62 -40 53 -50 c147 -139 422 -272 716 -347 185 -47 334 -66 555 -72 291 -8 507 15 750 78 508 131 876 411 969 737 l15 52 -897 0 c-493 0 -892 -4 -885 -8 6 -4 14 -19 18 -34 8 -32 36 -44 66 -28 18 10 25 8 48 -14 22 -22 24 -29 13 -46 -20 -32 -14 -49 22 -71 32 -19 34 -22 25 -52 -5 -17 -9 -33 -9 -34 0 -2 -8 -3 -19 -3 -29 0 -44 -25 -37 -63 5 -27 2 -38 -18 -56 -20 -18 -28 -21 -44 -12 -36 19 -59 13 -71 -19 -6 -18 -17 -30 -28 -30 -34 0 -63 12 -63 26 0 8 -9 23 -20 34 -19 19 -22 19 -50 5 -28 -14 -29 -14 -51 16 -18 26 -20 34 -10 56 15 33 7 57 -24 71 -34 15 -33 82 1 82 8 0 23 9 34 20 17 17 18 24 8 45 -10 23 -8 29 15 52 25 25 27 26 51 10 14 -10 32 -17 41 -17 14 0 35 36 35 61 0 5 -177 9 -449 9 l-448 0 -7 -38z m1420 -43 c16 -32 16 -32 94 -14 16 3 33 -1 48 -12 19 -15 21 -23 13 -49 -12 -41 1 -60 44 -68 19 -4 35 -13 35 -20 0 -8 3 -26 6 -42 5 -25 2 -30 -25 -41 -25 -9 -31 -17 -31 -42 0 -16 5 -33 10 -36 16 -10 12 -34 -10 -65 -19 -26 -23 -27 -55 -18 -40 13 -65 -1 -65 -37 0 -41 -84 -49 -102 -10 -15 32 -43 40 -74 21 -22 -15 -27 -15 -55 -1 -26 14 -29 20 -24 45 9 39 -8 67 -45 75 -19 4 -30 13 -30 23 0 9 -3 27 -6 40 -5 18 -1 24 24 33 39 13 48 46 23 80 -19 26 -19 27 0 58 21 34 27 36 63 19 22 -9 29 -8 46 7 11 10 20 31 20 46 0 25 4 28 38 32 20 2 38 4 39 5 1 1 10 -12 19 -29z m-366 -374 c16 -20 39 -19 61 1 16 14 23 15 49 4 16 -7 27 -17 24 -22 -3 -5 -3 -20 0 -34 5 -20 13 -24 41 -24 29 0 36 -4 41 -25 4 -17 1 -32 -10 -44 -20 -22 -20 -40 1 -63 23 -26 4 -65 -34 -70 -23 -2 -29 -9 -33 -37 -6 -44 -48 -60 -76 -30 -22 24 -36 24 -58 0 -15 -16 -23 -18 -47 -9 -20 7 -29 17 -29 31 0 36 -15 50 -43 43 -22 -5 -27 -1 -36 26 -9 25 -8 35 4 48 19 21 19 39 -1 61 -14 16 -15 23 -4 48 9 23 19 31 43 33 26 2 33 8 35 28 6 43 48 64 72 35z"/>
 <path d="M3028 1304 c-36 -19 -48 -43 -48 -93 0 -115 165 -150 214 -46 21 43 20 63 -4 103 -31 51 -104 68 -162 36z"/>
 <path d="M2709 951 c-36 -36 -37 -70 -3 -110 21 -25 33 -31 65 -31 83 0 118 83 60 141 -40 39 -82 39 -122 0z"/>
 <path d="M2573 1376 c-33 -15 -63 -60 -63 -96 0 -52 49 -100 101 -100 37 0 80 31 95 67 37 86 -47 167 -133 129z"/>
 </g>

</svg>